<svg xmlns="http://www.w3.org/2000/svg" viewBox="0 0 24 24" fill="none">
  <rect x="2" y="2" width="20" height="20" rx="6" fill="#111827"/>
  <path d="M12 6.1a2.7 2.7 0 0 1 2.4 1.5 2.8 2.8 0 0 1 2.8.4c1 .7 1.4 2 1.1 3.1a2.8 2.8 0 0 1 .4 2.8 2.8 2.8 0 0 1-2.3 1.7 2.7 2.7 0 0 1-4.4 1.5 2.7 2.7 0 0 1-4.4-1.5 2.8 2.8 0 0 1-2.3-1.7 2.8 2.8 0 0 1 .4-2.8c-.3-1.2.2-2.4 1.1-3.1a2.8 2.8 0 0 1 2.8-.4A2.7 2.7 0 0 1 12 6.1Z" stroke="#E5E7EB" stroke-width="1.4"/>
  <path d="m9.1 9.3 5.9 3.4M9.1 14.7l5.9-3.4M12 7.6v6.8" stroke="#E5E7EB" stroke-width="1.4" stroke-linecap="round"/>
</svg>
